<svg width="31" height="32" viewBox="0 0 31 32" fill="none" xmlns="http://www.w3.org/2000/svg">
<g clip-path="url(#clip0_1544_5333)">
<path d="M15.5042 26.1709C18.2095 26.1709 20.8041 25.1039 22.7171 23.2046C24.6301 21.3052 25.7048 18.7292 25.7048 16.0432C25.7048 13.3571 24.6301 10.7811 22.7171 8.88177C20.8041 6.98245 18.2095 5.91542 15.5042 5.91542C12.7988 5.91542 10.2042 6.98245 8.29125 8.88177C6.37827 10.7811 5.30357 13.3571 5.30357 16.0432C5.30357 18.7292 6.37827 21.3052 8.29125 23.2046C10.2042 25.1039 12.7988 26.1709 15.5042 26.1709ZM15.5042 28.7029C8.46193 28.7029 2.75342 23.0351 2.75342 16.0432C2.75342 9.05122 8.46193 3.38348 15.5042 3.38348C22.5464 3.38348 28.2549 9.05122 28.2549 16.0432C28.2549 23.0351 22.5464 28.7029 15.5042 28.7029ZM11.5387 17.5244L8.35354 16.5382C7.665 16.3293 7.66118 15.8583 8.50783 15.5203L20.9181 10.7603C21.6385 10.4691 22.0466 10.8375 21.8132 11.7604L19.7004 21.6603C19.5525 22.3654 19.1254 22.5338 18.5325 22.2084L15.2797 19.8183L13.7637 21.2716C13.6081 21.421 13.4819 21.5489 13.2422 21.5805C13.0037 21.6134 12.8074 21.5425 12.6633 21.1501L11.554 17.5155L11.5387 17.5256V17.5244Z" fill="#007BFF"/>
</g>
<defs>
<clipPath id="clip0_1544_5333">
<rect width="30.6018" height="30.3832" fill="white" transform="translate(0.203125 0.851562)"/>
</clipPath>
</defs>
</svg>
