<svg width="32" height="32" viewBox="0 0 32 32" fill="none" xmlns="http://www.w3.org/2000/svg">
<g clip-path="url(#clip0_1544_5336)">
<path d="M10.1399 24.2644L11.063 24.7999C12.6198 25.7013 14.3905 26.1746 16.1927 26.1709C18.2101 26.1709 20.1823 25.5769 21.8598 24.4641C23.5373 23.3512 24.8447 21.7695 25.6168 19.9189C26.3888 18.0683 26.5908 16.0319 26.1973 14.0673C25.8037 12.1028 24.8321 10.2982 23.4056 8.88177C21.979 7.46538 20.1614 6.5008 18.1827 6.11002C16.204 5.71924 14.153 5.9198 12.2891 6.68635C10.4251 7.45289 8.83203 8.75099 7.71117 10.4165C6.59031 12.082 5.99206 14.0401 5.99206 16.0432C5.99206 17.8611 6.47276 19.6043 7.37424 21.1374L7.91232 22.054L7.0797 25.0936L10.1399 24.2644ZM3.44701 28.7029L5.17091 22.4135C4.035 20.4802 3.43821 18.2814 3.44191 16.0432C3.44191 9.05122 9.15042 3.38348 16.1927 3.38348C23.2349 3.38348 28.9434 9.05122 28.9434 16.0432C28.9434 23.0351 23.2349 28.7029 16.1927 28.7029C13.9393 28.7065 11.7256 28.1144 9.77903 26.9875L3.44701 28.7029ZM11.5909 10.1032C11.7618 10.0906 11.9339 10.0906 12.1048 10.0982C12.1736 10.1032 12.2425 10.1108 12.3113 10.1184C12.5141 10.1412 12.7372 10.264 12.8124 10.4337C13.1924 11.2895 13.5622 12.1516 13.9192 13.0162C13.9983 13.2087 13.9511 13.4555 13.8006 13.6961C13.6971 13.8587 13.5852 14.0159 13.4653 14.167C13.3212 14.3506 13.0113 14.6873 13.0113 14.6873C13.0113 14.6873 12.8851 14.8367 12.9336 15.0228C12.9514 15.0937 13.0101 15.1962 13.0636 15.2823L13.1389 15.4026C13.4653 15.9432 13.9039 16.4913 14.4394 17.0078C14.5924 17.1547 14.7416 17.3053 14.9023 17.4459C15.499 17.9687 16.1748 18.3953 16.9041 18.7118L16.9105 18.7144C17.0189 18.7612 17.0737 18.7865 17.2318 18.8536C17.3109 18.8865 17.3925 18.9156 17.4754 18.9372C17.561 18.9588 17.6512 18.9547 17.7345 18.9254C17.8178 18.8961 17.8905 18.8429 17.9433 18.7726C18.8665 17.6623 18.9506 17.5902 18.9583 17.5902V17.5927C19.0224 17.5333 19.0986 17.4882 19.1817 17.4605C19.2649 17.4328 19.353 17.423 19.4403 17.4319C19.5168 17.437 19.5946 17.4509 19.666 17.4826C20.343 17.7902 21.4511 18.27 21.4511 18.27L22.1932 18.6004C22.3181 18.6599 22.4316 18.8004 22.4354 18.9359C22.4405 19.0207 22.4482 19.1574 22.4188 19.4081C22.378 19.736 22.2786 20.1297 22.1791 20.3361C22.111 20.4769 22.0206 20.606 21.9114 20.7184C21.7827 20.8525 21.6418 20.9746 21.4906 21.083C21.4383 21.1221 21.3851 21.16 21.3312 21.1969C21.1726 21.2968 21.0097 21.3898 20.8429 21.4754C20.5146 21.6486 20.152 21.748 19.7807 21.7666C19.5448 21.7793 19.3089 21.797 19.0718 21.7843C19.0616 21.7843 18.3475 21.6742 18.3475 21.6742C16.5347 21.2008 14.8581 20.3139 13.4512 19.084C13.1631 18.8321 12.8966 18.5612 12.6237 18.2915C11.4889 17.1711 10.6321 15.9621 10.1118 14.8202C9.84555 14.2598 9.70172 13.6497 9.68978 13.0302C9.68452 12.2615 9.93758 11.5131 10.4089 10.9033C10.502 10.7843 10.59 10.6603 10.7417 10.5172C10.9036 10.3653 11.0057 10.2843 11.1166 10.2286C11.2641 10.1552 11.425 10.1121 11.5896 10.102L11.5909 10.1032Z" fill="#007BFF"/>
</g>
<defs>
<clipPath id="clip0_1544_5336">
<rect width="30.6018" height="30.3832" fill="white" transform="translate(0.891602 0.851562)"/>
</clipPath>
</defs>
</svg>
